<svg xmlns="http://www.w3.org/2000/svg" viewBox="0 0 100 100" width="100" height="100">
  <rect width="100" height="100" rx="12" fill="#ffffff" />
  <g transform="translate(-4.13, 36.24) scale(1.45)" fill="#111827">
    <path d="M53.436-9.016H22.958v1.558l1.732.173c2.25.346 3.117 1.731 3.462 5.021.521 6.234.347 17.491 0 22.857-.346 3.291-1.211 4.85-3.462 5.021l-1.732.348v1.385h19.568v-1.385l-2.078-.348c-2.251-.172-3.117-1.73-3.463-5.021-.174-2.252-.347-5.889-.347-10.39l4.156.173c2.598 0 3.809 2.078 4.329 5.021h1.559V3.106h-1.559c-.521 2.944-1.731 5.021-4.329 5.021l-4.155.174c0-5.888.173-11.429.347-14.719h6.06c4.677 0 7.101 2.943 8.832 8.139l1.732-.52-.174-10.217z" />
  </g>
</svg>
